<?xml version="1.0" standalone="no"?>
<!DOCTYPE svg PUBLIC "-//W3C//DTD SVG 20010904//EN"
 "http://www.w3.org/TR/2001/REC-SVG-20010904/DTD/svg10.dtd">
<svg version="1.0" xmlns="http://www.w3.org/2000/svg"
 width="1077.000000pt" height="1077.000000pt" viewBox="0 0 1077.000000 1077.000000"
 preserveAspectRatio="xMidYMid meet">
<metadata>
Created by potrace 1.11, written by Peter Selinger 2001-2013
</metadata>
<g transform="translate(0.000000,1077.000000) scale(0.100000,-0.100000)"
fill="#000000" stroke="none">
<path d="M5168 7669 c-37 -4 -89 -10 -115 -14 -27 -4 -59 -8 -73 -10 -14 -2
-56 -10 -93 -19 -37 -9 -72 -14 -77 -11 -6 4 -10 1 -10 -5 0 -6 -6 -10 -12 -9
-7 1 -20 0 -28 -3 -8 -3 -69 -23 -135 -43 -66 -20 -125 -41 -131 -46 -6 -5
-19 -10 -30 -12 -32 -6 -104 -38 -209 -92 -151 -79 -190 -100 -195 -105 -12
-13 -91 -60 -99 -60 -5 0 -11 -3 -13 -8 -1 -4 -28 -25 -58 -47 -30 -22 -57
-42 -60 -45 -3 -3 -27 -23 -55 -46 -88 -72 -105 -87 -198 -179 -82 -80 -137
-141 -202 -222 -11 -14 -30 -36 -41 -49 -12 -12 -19 -25 -16 -28 3 -3 0 -6 -6
-6 -7 0 -12 -5 -12 -11 0 -6 -6 -17 -12 -24 -24 -27 -34 -40 -67 -95 -48 -77
-69 -114 -114 -200 -22 -41 -44 -78 -49 -81 -6 -3 -10 -9 -9 -12 0 -4 -5 -21
-12 -39 -6 -18 -10 -36 -9 -40 1 -5 -2 -8 -8 -8 -5 0 -14 -15 -19 -32 -19 -62
-67 -193 -73 -204 -4 -6 -9 -21 -12 -35 -2 -13 -11 -46 -20 -74 -8 -27 -13
-51 -11 -53 2 -3 0 -12 -5 -22 -5 -9 -12 -30 -15 -46 -2 -16 -7 -40 -10 -54
-3 -14 -7 -36 -10 -50 -3 -14 -7 -36 -10 -49 -2 -13 -7 -46 -10 -75 -4 -28 -9
-71 -12 -96 -8 -62 -11 -433 -4 -445 3 -5 6 -23 7 -40 3 -56 16 -160 21 -168
3 -5 8 -28 10 -51 5 -44 6 -50 19 -111 11 -55 11 -55 14 -57 2 -3 4 -14 13
-58 3 -14 12 -44 21 -68 8 -23 15 -45 15 -48 -1 -5 12 -43 31 -89 5 -11 16
-40 25 -65 35 -95 115 -263 129 -272 6 -4 7 -8 3 -8 -5 0 0 -12 10 -27 10 -16
25 -40 33 -55 7 -16 17 -28 22 -28 5 0 7 -4 4 -9 -3 -5 1 -14 9 -21 8 -7 15
-19 15 -26 0 -8 5 -14 10 -14 6 0 10 -7 10 -15 0 -8 5 -15 10 -15 6 0 10 -5
10 -10 0 -11 10 -24 42 -61 10 -10 15 -19 12 -19 -5 0 66 -94 121 -158 50 -59
247 -255 299 -297 26 -22 55 -48 64 -57 9 -10 20 -18 25 -18 4 0 17 -9 29 -20
12 -11 40 -32 62 -47 23 -15 43 -30 46 -33 22 -23 242 -150 335 -194 122 -58
302 -129 373 -147 17 -5 47 -13 65 -18 60 -18 157 -41 190 -46 17 -2 63 -10
101 -16 59 -11 70 -10 80 3 8 11 11 174 9 559 0 299 -1 552 -2 561 -1 12 -15
21 -43 28 -102 26 -230 76 -318 122 -93 49 -212 126 -218 141 -2 4 -7 7 -12 7
-23 0 -168 144 -251 250 -86 108 -89 113 -89 127 0 7 -3 13 -7 13 -5 0 -13 10
-19 23 -73 143 -95 190 -97 207 -1 11 -4 20 -8 20 -5 0 -32 80 -34 100 0 3 -3
10 -7 15 -7 11 -30 116 -33 155 -2 14 -4 25 -5 25 -12 0 -18 306 -8 410 4 33
7 60 8 60 2 0 4 12 13 60 9 45 23 97 36 128 6 15 9 27 6 27 -2 0 8 28 21 63
42 103 49 117 57 117 5 0 6 4 2 9 -3 5 0 15 7 23 7 7 14 20 16 28 2 8 10 22
17 30 7 8 15 22 17 30 3 14 13 29 36 55 6 7 12 18 12 24 0 5 10 17 23 26 12 8
21 18 19 20 -1 3 13 26 33 52 19 25 35 42 35 37 0 -4 13 10 29 32 16 21 56 62
88 91 58 50 209 163 220 163 3 0 19 10 36 22 18 13 34 23 37 24 3 0 39 17 80
37 76 36 220 89 220 81 0 -2 17 3 38 10 38 15 146 35 217 42 61 5 277 5 305
-1 13 -2 42 -7 65 -10 54 -8 146 -26 165 -33 8 -3 17 -6 20 -7 21 -5 90 -28
110 -37 57 -24 66 -28 80 -30 8 -2 17 -5 20 -8 4 -5 97 -54 157 -84 13 -6 23
-14 23 -18 0 -5 4 -8 10 -8 12 0 119 -81 151 -115 13 -13 27 -25 31 -25 13 0
134 -133 186 -203 29 -40 57 -77 62 -84 6 -7 10 -17 10 -23 0 -5 5 -10 10 -10
6 0 10 -4 10 -10 0 -5 13 -31 28 -57 16 -26 29 -50 29 -53 0 -3 7 -21 16 -40
33 -72 67 -164 67 -181 0 -10 5 -21 10 -24 6 -4 8 -10 5 -15 -3 -5 -1 -11 4
-15 6 -3 8 -11 5 -18 -2 -7 1 -20 8 -30 12 -16 53 -17 572 -18 586 0 594 1
580 44 -3 11 -8 36 -9 56 -2 20 -4 36 -5 36 -2 0 -6 20 -14 65 -3 19 -14 67
-24 107 -11 40 -17 75 -14 78 4 3 2 9 -4 13 -10 6 -32 75 -37 112 -1 8 -5 17
-9 20 -4 3 -9 15 -11 25 -2 11 -11 37 -20 59 -9 21 -17 43 -17 48 0 5 -6 19
-14 31 -8 12 -16 31 -18 42 -2 11 -6 22 -9 25 -11 9 -79 154 -79 169 0 8 -3
11 -7 8 -3 -4 -18 17 -33 46 -14 29 -45 81 -68 115 -23 35 -42 68 -42 73 0 5
-5 9 -10 9 -6 0 -14 8 -17 18 -4 9 -20 31 -35 47 -15 17 -28 33 -28 38 0 4 -8
15 -17 26 -10 10 -36 40 -58 66 -22 27 -68 78 -102 114 -35 35 -63 69 -63 75
0 5 -3 6 -7 3 -3 -4 -19 7 -35 24 -64 66 -227 196 -350 276 -106 71 -392 227
-421 231 -21 2 -103 37 -109 46 -4 6 -8 8 -8 4 0 -4 -31 4 -69 17 -152 54
-323 91 -536 119 -110 14 -441 18 -547 5z"/>
<path d="M4680 5691 c0 -65 4 -92 14 -100 22 -19 36 16 33 86 l-2 60 26 -7
c15 -4 32 -4 40 1 7 4 18 4 24 0 16 -14 58 7 51 25 -3 9 -6 18 -6 20 0 2 -40
4 -90 4 l-90 0 0 -89z"/>
<path d="M5900 5765 c-18 -22 15 -46 45 -35 12 5 27 5 33 1 14 -8 54 -7 70 3
9 5 12 -12 12 -69 0 -73 1 -76 23 -73 21 3 22 8 24 96 l3 92 -99 0 c-76 0
-101 -3 -111 -15z"/>
<path d="M4882 5628 c-8 -8 -12 -67 -12 -191 l0 -178 23 3 c22 3 22 5 24 180
1 130 -2 180 -11 187 -9 7 -16 7 -24 -1z"/>
<path d="M4952 5628 c-18 -18 -17 -352 1 -367 30 -24 37 9 37 185 0 130 -3
174 -13 183 -10 8 -17 7 -25 -1z"/>
<path d="M5071 5627 c-17 -17 -15 -351 2 -366 30 -24 37 9 37 182 0 129 -3
172 -14 182 -10 10 -16 11 -25 2z"/>
<path d="M5213 5628 c-11 -18 -13 -339 -2 -360 5 -10 16 -15 24 -12 22 9 22
356 1 373 -11 9 -16 9 -23 -1z"/>
<path d="M5358 5622 c-21 -25 -19 -349 2 -362 9 -6 19 -5 24 0 13 13 13 346 0
365 -10 13 -13 13 -26 -3z"/>
<path d="M5474 5629 c-4 -8 -9 -90 -9 -182 -1 -167 5 -206 32 -189 9 6 13 56
14 181 1 141 -1 176 -14 188 -12 12 -16 13 -23 2z"/>
<path d="M5550 5630 c-11 -7 -14 -42 -15 -180 0 -94 2 -174 5 -179 3 -4 13
-10 23 -14 20 -7 18 -19 21 196 1 152 -7 194 -34 177z"/>
<path d="M5670 5630 c-12 -7 -15 -41 -15 -184 0 -175 5 -204 34 -187 11 7 14
44 14 178 0 173 -6 210 -33 193z"/>
<path d="M5882 5628 c-19 -19 -17 -364 2 -371 28 -11 33 20 32 190 -1 171 -8
207 -34 181z"/>
<path d="M5973 5627 c-11 -14 -11 -347 0 -364 4 -7 14 -10 22 -6 21 8 22 347
1 368 -11 11 -16 12 -23 2z"/>
<path d="M4779 5623 c-1 -5 -2 -84 -3 -177 -1 -135 1 -172 13 -183 26 -26 34
12 33 166 0 210 1 201 -22 201 -11 0 -21 -3 -21 -7z"/>
<path d="M5137 5624 c-4 -4 -7 -85 -7 -179 0 -134 3 -175 14 -184 30 -25 37
11 34 190 -3 148 -5 174 -18 177 -9 1 -19 0 -23 -4z"/>
<path d="M5729 5618 c0 -7 -1 -87 -2 -177 -2 -171 5 -208 34 -179 11 11 14 47
13 169 -2 211 -1 199 -24 199 -11 0 -20 -6 -21 -12z"/>
<path d="M4710 5232 c-20 -7 -29 -22 -23 -39 4 -9 18 -13 44 -10 22 2 39 0 39
-5 0 -5 5 -6 11 -2 16 10 109 11 109 1 0 -5 5 -5 11 -1 16 10 229 11 229 1 0
-5 5 -5 11 -1 16 10 309 11 309 1 0 -5 5 -5 11 -1 17 10 409 10 409 0 0 -5 7
-3 15 4 12 10 15 10 15 -1 0 -9 3 -10 8 -4 9 12 122 13 122 1 0 -5 6 -3 13 3
8 6 16 8 20 5 10 -10 46 16 41 30 -6 16 -68 26 -86 15 -7 -5 -18 -3 -25 3 -7
6 -13 6 -13 1 0 -5 -24 -6 -55 -3 -31 3 -57 4 -60 2 -7 -7 -115 -5 -122 2 -3
3 -12 1 -19 -5 -7 -6 -15 -6 -18 -1 -3 5 -23 6 -44 2 -21 -4 -48 -3 -60 1 -12
5 -22 5 -22 1 0 -8 -149 -7 -157 2 -4 3 -12 1 -19 -5 -7 -6 -15 -6 -18 -1 -3
5 -23 6 -44 2 -21 -4 -48 -3 -60 1 -12 5 -22 5 -22 1 0 -4 -34 -5 -76 -2 -42
3 -78 2 -80 -1 -2 -4 -19 -3 -38 1 -19 4 -37 5 -40 3 -6 -7 -156 -6 -162 0 -3
3 -19 1 -35 -3 -18 -5 -29 -5 -29 1 0 6 -7 6 -17 1 -20 -9 -33 -10 -48 -1 -5
4 -17 4 -25 1z"/>
<path d="M4782 5143 c-7 -14 -9 -358 -3 -420 1 -17 27 -17 37 -1 9 15 8 413
-1 428 -9 15 -23 12 -33 -7z"/>
<path d="M4876 5144 c-12 -31 -7 -225 7 -238 10 -11 15 -11 25 0 14 15 14 223
-1 242 -13 16 -24 15 -31 -4z"/>
<path d="M4952 5148 c-6 -7 -11 -63 -11 -124 -1 -86 2 -114 13 -123 25 -21 36
19 36 128 0 124 -9 153 -38 119z"/>
<path d="M5065 5138 c-3 -13 -5 -70 -3 -128 3 -97 4 -105 23 -105 19 0 20 8
23 114 2 75 -1 118 -9 127 -17 20 -28 17 -34 -8z"/>
<path d="M5141 5146 c-8 -9 -11 -52 -9 -127 3 -106 4 -114 23 -114 19 0 20 8
23 105 4 139 -6 174 -37 136z"/>
<path d="M5212 5147 c-5 -7 -9 -64 -8 -127 1 -108 2 -115 21 -115 19 0 20 8
23 121 2 99 0 123 -12 127 -8 3 -19 0 -24 -6z"/>
<path d="M5359 5148 c-11 -11 -14 -41 -13 -124 1 -60 2 -112 3 -116 2 -13 41
-9 42 5 0 6 1 59 2 116 2 111 -8 145 -34 119z"/>
<path d="M5472 5147 c-5 -7 -8 -63 -8 -125 1 -87 5 -115 16 -122 22 -14 29 8
31 91 2 132 0 157 -15 162 -8 3 -19 0 -24 -6z"/>
<path d="M5544 5149 c-4 -7 -8 -60 -9 -119 -1 -110 8 -147 35 -130 15 9 22
200 9 238 -9 24 -24 29 -35 11z"/>
<path d="M5662 5143 c-5 -10 -8 -65 -8 -122 1 -86 4 -106 18 -115 9 -5 20 -7
24 -3 9 9 9 231 0 246 -10 16 -24 14 -34 -6z"/>
<path d="M5741 5150 c-11 -6 -14 -36 -14 -124 0 -64 3 -120 7 -123 4 -4 14 -3
24 3 13 9 16 29 17 123 0 113 -7 138 -34 121z"/>
<path d="M5876 5153 c-3 -3 -6 -60 -6 -125 0 -98 3 -120 15 -125 9 -3 19 -2
23 1 3 4 7 59 8 122 1 100 -1 116 -16 124 -10 5 -20 6 -24 3z"/>
<path d="M5979 5151 c-13 -5 -15 -35 -14 -218 0 -116 3 -215 7 -219 4 -3 14
-4 23 -1 13 6 15 37 15 221 0 118 -3 217 -7 219 -5 3 -15 2 -24 -2z"/>
<path d="M4882 4818 c-16 -16 -15 -55 2 -61 15 -6 36 11 36 28 0 6 -6 19 -13
28 -10 14 -15 15 -25 5z"/>
<path d="M4951 4816 c-18 -21 -9 -51 14 -51 24 0 32 36 12 53 -11 10 -17 9
-26 -2z"/>
<path d="M5025 4820 c-3 -6 -8 -22 -11 -35 -4 -21 -1 -25 21 -25 20 0 25 5 25
24 0 27 -24 53 -35 36z"/>
<path d="M5090 4810 c-8 -14 -8 -26 0 -40 14 -27 40 -14 40 20 0 34 -26 47
-40 20z"/>
<path d="M5162 4815 c-7 -8 -13 -16 -14 -17 -6 -11 25 -46 36 -42 20 8 25 38
11 57 -15 20 -16 20 -33 2z"/>
<path d="M5236 4823 c-8 -8 -8 -58 0 -66 15 -14 41 13 37 37 -5 24 -25 40 -37
29z"/>
<path d="M5382 4818 c-17 -17 -15 -55 2 -61 29 -11 45 38 20 63 -7 7 -14 6
-22 -2z"/>
<path d="M5452 4818 c-18 -18 -14 -46 7 -58 16 -8 21 -6 26 10 3 10 1 28 -5
40 -13 24 -12 24 -28 8z"/>
<path d="M5523 4818 c-17 -23 -9 -53 15 -56 18 -3 22 1 22 21 0 31 -23 53 -37
35z"/>
<path d="M5592 4817 c-14 -16 -10 -46 8 -57 19 -12 30 -3 30 24 0 31 -23 51
-38 33z"/>
<path d="M5735 4817 c-6 -7 -10 -18 -9 -24 1 -7 2 -17 3 -23 0 -5 9 -10 20
-10 24 0 34 36 14 55 -17 18 -15 17 -28 2z"/>
<path d="M5874 4805 c-8 -32 12 -60 32 -44 18 14 13 49 -8 60 -14 8 -19 5 -24
-16z"/>
<path d="M5300 4790 c0 -23 5 -30 19 -30 11 0 23 5 26 10 11 18 -6 50 -26 50
-14 0 -19 -7 -19 -30z"/>
<path d="M5657 4801 c-6 -25 10 -51 28 -45 9 4 15 19 15 35 0 22 -5 29 -19 29
-10 0 -21 -8 -24 -19z"/>
<path d="M5800 4798 c0 -13 5 -30 10 -38 9 -13 12 -13 24 3 19 25 13 51 -12
55 -17 3 -22 -2 -22 -20z"/>
<path d="M4692 4748 c-7 -7 -12 -45 -12 -98 l0 -85 93 1 c120 1 117 1 117 25
0 15 -5 19 -15 15 -8 -3 -15 -2 -15 3 0 9 -43 7 -59 -4 -6 -3 -11 -2 -11 3 0
5 -13 8 -30 6 l-30 -4 0 64 c0 67 -15 97 -38 74z"/>
<path d="M6065 4738 c-2 -7 -6 -40 -7 -73 -2 -47 -6 -59 -18 -56 -30 7 -90 7
-90 -1 0 -4 -7 -5 -16 -1 -12 4 -15 0 -12 -18 3 -23 6 -24 93 -24 l90 0 0 90
c0 78 -2 90 -18 93 -9 2 -19 -2 -22 -10z"/>
<path d="M6892 4739 c-9 -4 -20 -5 -23 -3 -3 2 -18 -41 -34 -94 -15 -53 -39
-122 -53 -152 -14 -30 -25 -61 -25 -67 0 -7 -4 -13 -9 -13 -4 0 -8 -7 -8 -15
0 -8 -4 -15 -10 -15 -5 0 -10 -9 -10 -20 0 -11 -4 -20 -8 -20 -5 0 -17 -18
-27 -40 -10 -22 -22 -40 -27 -40 -5 0 -7 -4 -4 -9 4 -5 2 -11 -2 -13 -4 -1
-23 -25 -42 -53 -57 -86 -266 -284 -369 -350 -51 -33 -97 -59 -102 -58 -5 2
-9 -1 -9 -5 0 -5 -19 -17 -42 -28 -24 -10 -45 -21 -48 -25 -3 -3 -14 -8 -25
-12 -11 -3 -55 -19 -97 -35 -43 -17 -78 -29 -78 -27 0 2 -21 -5 -47 -14 -43
-15 -48 -20 -49 -49 0 -17 -3 -34 -6 -38 -3 -3 -3 -18 2 -33 4 -16 4 -34 0
-41 -5 -7 -4 -24 1 -37 5 -14 5 -23 -1 -23 -5 0 -7 -7 -3 -17 8 -20 8 -81 1
-89 -4 -3 -3 -18 2 -33 4 -16 4 -34 0 -41 -5 -7 -4 -24 1 -37 5 -14 5 -23 -1
-23 -5 0 -7 -7 -3 -17 8 -20 8 -81 1 -89 -4 -3 -3 -18 2 -33 4 -16 4 -34 0
-41 -5 -7 -4 -24 1 -37 5 -14 5 -23 -1 -23 -5 0 -7 -7 -3 -17 8 -20 8 -81 1
-89 -4 -3 -3 -18 2 -33 4 -16 4 -34 0 -41 -5 -7 -4 -24 1 -37 5 -14 5 -23 -1
-23 -5 0 -7 -7 -3 -17 8 -20 8 -81 1 -89 -4 -3 -3 -18 2 -33 4 -16 4 -34 0
-41 -5 -8 -2 -19 7 -28 13 -13 27 -13 121 2 59 10 141 27 182 37 41 11 82 22
90 24 18 4 169 53 190 62 8 3 17 7 20 8 20 7 54 21 109 46 35 16 69 29 76 29
7 0 15 5 17 11 2 5 10 11 18 12 9 2 37 15 62 30 26 15 49 27 52 27 8 0 111 65
118 75 4 5 8 6 8 2 0 -8 80 45 108 71 7 6 17 12 22 12 5 0 15 6 22 13 7 7 33
28 58 47 25 19 50 39 57 45 6 5 33 28 59 50 91 78 229 220 314 325 19 24 40
48 46 54 24 24 167 243 176 269 6 15 14 27 20 27 5 0 6 5 3 10 -3 6 -2 10 3
10 4 0 28 41 53 90 24 50 47 90 52 90 4 0 6 4 3 9 -3 4 5 31 19 59 13 27 27
62 31 76 3 14 10 26 16 26 5 0 7 4 4 8 -5 8 19 82 44 137 4 11 11 34 14 50 7
32 10 42 19 65 4 8 9 26 11 40 3 14 7 36 10 50 9 37 25 129 31 175 3 22 8 45
10 51 12 38 5 38 -560 39 -300 0 -553 -3 -563 -6z"/>
</g>
</svg>
